<mxfile host="app.diagrams.net" modified="2023-11-29T02:16:42.855Z" agent="Mozilla/5.0 (Macintosh; Intel Mac OS X 10_15_7) AppleWebKit/537.36 (KHTML, like Gecko) Chrome/119.0.0.0 Safari/537.36" etag="Op8ME2i-aYEjs0Nhf61S" version="21.7.4" type="github">
  <diagram name="第 1 页" id="4eC4Y5nyNUY1-vNa9eZq">
    <mxGraphModel dx="866" dy="597" grid="1" gridSize="10" guides="1" tooltips="1" connect="1" arrows="1" fold="1" page="1" pageScale="1" pageWidth="827" pageHeight="1169" math="0" shadow="0">
      <root>
        <mxCell id="0" />
        <mxCell id="1" parent="0" />
      </root>
    </mxGraphModel>
  </diagram>
</mxfile>
